<?xml version="1.0" encoding="iso-8859-1"?>
<!-- Generator: Adobe Illustrator 18.0.0, SVG Export Plug-In . SVG Version: 6.00 Build 0)  -->
<!DOCTYPE svg PUBLIC "-//W3C//DTD SVG 1.1//EN" "http://www.w3.org/Graphics/SVG/1.1/DTD/svg11.dtd">
<svg version="1.1" id="Capa_1" xmlns="http://www.w3.org/2000/svg" xmlns:xlink="http://www.w3.org/1999/xlink" x="0px" y="0px"
	 viewBox="0 0 512 512" style="enable-background:new 0 0 512 512;" xml:space="preserve">
<g>
	<path style="fill:#FFFFFF;" d="M424,224H296H88c-30.875,0-56,25.121-56,56v80c0,30.879,25.125,56,56,56h336
		c30.875,0,56-25.121,56-56v-80C480,249.121,454.875,224,424,224z"/>
	<g>
		<g>
			<rect x="32.008" y="288" style="fill:#6EBF5D;" width="447.992" height="64"/>
		</g>
	</g>
	<path style="fill:#003B54;" d="M434.211,192.643L383.156,90.531C374.969,74.164,358.523,64,340.227,64H152
		c-26.469,0-48,21.531-48,48c0,26.469,21.531,48,48,48h128v32H88c-48.523,0-88,39.477-88,88v80c0,48.523,39.477,88,88,88h336
		c48.523,0,88-39.477,88-88v-80C512,234.936,477.935,197.727,434.211,192.643z M296,128H152c-8.82,0-16-7.176-16-16s7.18-16,16-16
		h188.227c6.094,0,11.578,3.391,14.305,8.844L398.109,192H312v-48C312,135.164,304.836,128,296,128z M480,360
		c0,30.879-25.125,56-56,56H88c-30.875,0-56-25.121-56-56v-80c0-30.879,25.125-56,56-56h208h128c30.875,0,56,25.121,56,56V360z"/>
	<path style="fill:#F69348;" d="M340.227,96H152c-8.82,0-16,7.176-16,16s7.18,16,16,16h144c8.836,0,16,7.164,16,16v48h86.109
		l-43.578-87.156C351.805,99.391,346.32,96,340.227,96z"/>
</g>
<g>
</g>
<g>
</g>
<g>
</g>
<g>
</g>
<g>
</g>
<g>
</g>
<g>
</g>
<g>
</g>
<g>
</g>
<g>
</g>
<g>
</g>
<g>
</g>
<g>
</g>
<g>
</g>
<g>
</g>
</svg>
